<svg xmlns="http://www.w3.org/2000/svg" version="1.1" xmlns:xlink="http://www.w3.org/1999/xlink" xmlns:svgjs="http://svgjs.dev/svgjs" width="1500" height="935" viewBox="0 0 1500 935"><g transform="matrix(1,0,0,1,-0.9090909090909918,0.3785425101214628)"><svg viewBox="0 0 396 247" data-background-color="#ffffff" preserveAspectRatio="xMidYMid meet" height="935" width="1500" xmlns="http://www.w3.org/2000/svg" xmlns:xlink="http://www.w3.org/1999/xlink"><g id="tight-bounds" transform="matrix(1,0,0,1,0.2400000000000091,-0.09999999999999432)"><svg viewBox="0 0 395.52 247.2" height="247.2" width="395.52"><g><svg></svg></g><g><svg viewBox="0 0 395.52 247.2" height="247.2" width="395.52"><g transform="matrix(1,0,0,1,75.54432,76.0333940795056)"><svg viewBox="0 0 244.43135999999998 95.13321184098879" height="95.13321184098879" width="244.43135999999998"><g><svg viewBox="0 0 413.67614077866176 161.00364508980817" height="95.13321184098879" width="244.43135999999998"><g transform="matrix(1,0,0,1,168.02262397866178,28.289467908314535)"><svg viewBox="0 0 245.65351679999995 104.4247092731791" height="104.4247092731791" width="245.65351679999995"><g id="textblocktransform"><svg viewBox="0 0 245.65351679999995 104.4247092731791" height="104.4247092731791" width="245.65351679999995" id="textblock"><g><rect width="245.65351679999995" height="6.191742727772011" x="0" y="75.9529738256121" fill="#398378" opacity="1" stroke-width="0" stroke="transparent" fill-opacity="1" class="rect-qz-0" data-fill-palette-color="primary" rx="1%" id="qz-0" data-palette-color="#398378"></rect></g><g transform="matrix(1,0,0,1,0.6110783999999825,0)"><svg viewBox="0 0 244.43135999999998 68.65903605729429" height="68.65903605729429" width="244.43135999999998"><g transform="matrix(1,0,0,1,0,0)"><svg width="244.43135999999998" viewBox="1.5 -34.5 124.23663895486936 34.9" height="68.65903605729429" data-palette-color="#398378"><g transform="matrix(1,0,0,1,0,0)"><g><svg width="15.43109263657957" viewBox="1.99 -36.86 73.33 37.37" height="7.865" data-palette-color="#398378" id="scriptelement" x="110.30554631828979" y="-7.865"><path d="M30.26-25.91L22.89-25.91Q22.67-28.05 21.06-29.24 19.44-30.43 16.67-30.43L16.67-30.43Q14.79-30.43 13.49-29.91 12.2-29.39 11.51-28.46 10.83-27.54 10.83-26.37L10.83-26.37Q10.8-25.39 11.25-24.66 11.7-23.93 12.5-23.41 13.3-22.89 14.35-22.51 15.39-22.12 16.58-21.86L16.58-21.86 19.85-21.08Q22.23-20.54 24.22-19.66 26.21-18.77 27.66-17.47 29.12-16.18 29.93-14.42 30.74-12.66 30.75-10.39L30.75-10.39Q30.74-7.05 29.06-4.61 27.38-2.17 24.23-0.83 21.08 0.51 16.64 0.51L16.64 0.51Q12.23 0.51 8.98-0.83 5.72-2.18 3.9-4.84 2.08-7.49 1.99-11.42L1.99-11.42 9.43-11.42Q9.55-9.59 10.48-8.37 11.42-7.16 12.99-6.54 14.56-5.93 16.55-5.93L16.55-5.93Q18.5-5.93 19.95-6.5 21.4-7.07 22.19-8.08 22.99-9.09 22.99-10.4L22.99-10.4Q22.99-11.63 22.27-12.46 21.56-13.3 20.18-13.88 18.8-14.47 16.81-14.95L16.81-14.95 12.86-15.94Q8.26-17.06 5.59-19.44 2.93-21.82 2.95-25.85L2.95-25.85Q2.93-29.15 4.71-31.62 6.5-34.09 9.62-35.48 12.75-36.86 16.73-36.86L16.73-36.86Q20.77-36.86 23.8-35.48 26.83-34.09 28.52-31.62 30.2-29.15 30.26-25.91L30.26-25.91ZM35.9 0L35.9-36.36 45.38-36.36 55.4-11.93 55.82-11.93 65.84-36.36 75.32-36.36 75.32 0 67.86 0 67.86-23.67 67.56-23.67 58.15-0.18 53.07-0.18 43.66-23.76 43.36-23.76 43.36 0 35.9 0Z" opacity="1" transform="matrix(1,0,0,1,0,0)" fill="#398378" class="undefined-123" data-fill-palette-color="primary" id="yy-123"></path></svg></g></g><path d="M14.1-33.7L14.1-8.65Q14.1 0 6.25 0L6.25 0Q3.45 0 1.5-1.1L1.5-1.1 1.5-5Q3.5-3.7 5.7-3.7L5.7-3.7Q10.05-3.7 10.05-8.3L10.05-8.3 10.05-33.7 14.1-33.7ZM41.25-8.95L41.25-8.95Q41.25-4.5 38.2-2.08 35.15 0.35 30.35 0.35L30.35 0.35Q25.05 0.35 21.35-1.8L21.35-1.8 21.35-6.15Q25-3.4 30.25-3.4L30.25-3.4Q33.4-3.4 35.2-4.8 37-6.2 37-8.85L37-8.85Q37-9.95 36.57-10.83 36.15-11.7 35.17-12.43 34.2-13.15 33.32-13.63 32.45-14.1 30.95-14.8L30.95-14.8Q30.65-14.95 30.05-15.2L30.05-15.2Q27.9-16.15 26.77-16.75 25.65-17.35 24.12-18.53 22.6-19.7 21.9-21.25 21.2-22.8 21.2-24.85L21.2-24.85Q21.2-29.15 24.27-31.58 27.35-34 32-34L32-34Q36.35-34 39.4-32.45L39.4-32.45 39.4-28.2Q36.35-30.2 32.1-30.2L32.1-30.2Q29.05-30.2 27.25-28.78 25.45-27.35 25.45-25.05L25.45-25.05Q25.45-23.85 25.92-22.9 26.4-21.95 27.6-21.13 28.8-20.3 29.65-19.88 30.5-19.45 32.3-18.65L32.3-18.65Q34-17.9 34.9-17.48 35.8-17.05 37.22-16.13 38.65-15.2 39.37-14.33 40.1-13.45 40.67-12.03 41.25-10.6 41.25-8.95ZM54.8-26.1L54.8-26.1Q54.8-24.5 55.72-22.93 56.65-21.35 59.05-18.9L59.05-18.9Q62.4-20.45 63.92-22.08 65.45-23.7 65.45-25.8L65.45-25.8Q65.45-27.95 64.05-29.43 62.65-30.9 60-30.9L60-30.9Q57.75-30.9 56.27-29.63 54.8-28.35 54.8-26.1ZM72.8-5.95L79.15 0 73.8 0 70.4-3.15Q66.34 0.4 59.95 0.4L59.95 0.4Q54.3 0.4 50.82-2.18 47.35-4.75 47.35-8.8L47.35-8.8Q47.35-14.45 55.25-17.45L55.25-17.45Q52.9-20 51.8-21.98 50.7-23.95 50.7-26.15L50.7-26.15Q50.7-29.9 53.25-32.2 55.8-34.5 60.05-34.5 64.3-34.5 66.9-32.02 69.5-29.55 69.5-25.85L69.5-25.85Q69.5-19.95 61.55-16.4L61.55-16.4 70-8.55Q71.15-10.55 71.4-13.4L71.4-13.4 75.2-13.4Q74.9-9.1 72.8-5.95L72.8-5.95ZM59.85-3.25L59.85-3.25Q64.5-3.25 67.65-5.7L67.65-5.7 57.75-14.95Q54.55-13.75 53-12.3 51.45-10.85 51.45-8.85L51.45-8.85Q51.45-6.3 53.8-4.78 56.15-3.25 59.85-3.25ZM102.59-8.95L102.59-8.95Q102.59-4.5 99.54-2.08 96.49 0.35 91.69 0.35L91.69 0.35Q86.39 0.35 82.69-1.8L82.69-1.8 82.69-6.15Q86.34-3.4 91.59-3.4L91.59-3.4Q94.74-3.4 96.54-4.8 98.34-6.2 98.34-8.85L98.34-8.85Q98.34-9.95 97.92-10.83 97.49-11.7 96.52-12.43 95.54-13.15 94.67-13.63 93.79-14.1 92.29-14.8L92.29-14.8Q91.99-14.95 91.39-15.2L91.39-15.2Q89.24-16.15 88.12-16.75 86.99-17.35 85.47-18.53 83.94-19.7 83.24-21.25 82.54-22.8 82.54-24.85L82.54-24.85Q82.54-29.15 85.62-31.58 88.69-34 93.34-34L93.34-34Q97.69-34 100.74-32.45L100.74-32.45 100.74-28.2Q97.69-30.2 93.44-30.2L93.44-30.2Q90.39-30.2 88.59-28.78 86.79-27.35 86.79-25.05L86.79-25.05Q86.79-23.85 87.27-22.9 87.74-21.95 88.94-21.13 90.14-20.3 90.99-19.88 91.84-19.45 93.64-18.65L93.64-18.65Q95.34-17.9 96.24-17.48 97.14-17.05 98.57-16.13 99.99-15.2 100.72-14.33 101.44-13.45 102.02-12.03 102.59-10.6 102.59-8.95Z" opacity="1" transform="matrix(1,0,0,1,0,0)" fill="#398378" class="wordmark-text-0" data-fill-palette-color="primary" id="text-0"></path></svg></g></svg></g><g transform="matrix(1,0,0,1,0,89.43865432170193)"><svg viewBox="0 0 169.51314815999996 14.986054951477168" height="14.986054951477168" width="169.51314815999996"><g transform="matrix(1,0,0,1,0,0)"><svg width="169.51314815999996" viewBox="-0.5 -39 446.76 39.5" height="14.986054951477168" data-palette-color="#398378"><path d="M10.6-32.05L18-18.15 25.6-32.05 21.55-33.1 21.55-36 34.4-36 34.4-33.1 30.3-32.05 20.5-14.1 20.5-3.95 25.2-2.9 25.2 0 9.3 0 9.3-2.9 14-3.95 14-13.3 3.65-32.05-0.5-33.1-0.5-36 14.8-36 14.8-33.1 10.6-32.05ZM58.15-13.5L58.15-13.5Q58.15-10.3 57.22-7.48 56.3-4.65 54.55-2.75L54.55-2.75Q52.9-1 50.57-0.25 48.25 0.5 45.15 0.5L45.15 0.5Q42.05 0.5 39.72-0.25 37.4-1 35.75-2.75L35.75-2.75Q34-4.65 33.07-7.48 32.15-10.3 32.15-13.5L32.15-13.5Q32.15-16.7 33.07-19.55 34-22.4 35.75-24.25L35.75-24.25Q37.4-26 39.72-26.75 42.05-27.5 45.15-27.5L45.15-27.5Q48.25-27.5 50.57-26.75 52.9-26 54.55-24.25L54.55-24.25Q56.3-22.4 57.22-19.55 58.15-16.7 58.15-13.5ZM40.6-4.85L40.6-4.85Q41.3-3.85 42.42-3.35 43.55-2.85 45.15-2.85L45.15-2.85Q46.75-2.85 47.9-3.35 49.05-3.85 49.7-4.85L49.7-4.85Q51.3-7.3 51.3-13.5L51.3-13.5Q51.3-16.65 50.9-18.8 50.5-20.95 49.7-22.15L49.7-22.15Q49.05-23.15 47.9-23.65 46.75-24.15 45.15-24.15L45.15-24.15Q43.55-24.15 42.42-23.65 41.3-23.15 40.6-22.15L40.6-22.15Q39-19.7 39-13.5L39-13.5Q39-7.3 40.6-4.85ZM61.2-27L70.9-27 70.9-13.6Q70.9-10.4 71.05-8.8 71.2-7.2 71.5-6.25L71.5-6.25Q71.9-5.05 72.82-4.42 73.75-3.8 74.7-3.8L74.7-3.8Q76.05-3.8 77.15-4.3 78.25-4.8 79.2-5.65L79.2-5.65Q81.25-7.5 81.45-11.4L81.45-11.4 81.45-23.25 77.09-24.2 77.09-27 87.8-27 87.8-3.75 91.65-2.8 91.65 0 82.4 0.5 81.84-5 81.65-5Q80.2-2.45 77.7-0.98 75.2 0.5 72.34 0.5L72.34 0.5Q70.45 0.5 68.87-0.23 67.3-0.95 66.4-2.2L66.4-2.2Q65.45-3.6 65-6.15 64.55-8.7 64.55-12.95L64.55-12.95 64.55-23.25 61.2-24.2 61.2-27ZM109.09-23.35L109.09-23.35Q109.09-23.35 109.09-23.35 109.09-23.35 109.09-23.35L109.09-23.35Q108.54-23.35 107.84-22.68 107.14-22 106.57-21.1 105.99-20.2 105.74-19.5L105.74-19.5Q105.14-17.8 104.69-16 104.24-14.2 104.24-11.6L104.24-11.6 104.24-3.75 109.64-2.8 109.64 0 94.04 0 94.04-2.8 97.89-3.75 97.89-24 94.04-24.95 94.04-27 102.74-27 103.84-20.4 104.04-20.4Q105.19-23.8 107.14-25.65 109.09-27.5 111.44-27.5L111.44-27.5Q113.39-27.5 114.69-26.28 115.99-25.05 115.99-23L115.99-23Q115.99-21.5 115.09-20.28 114.19-19.05 112.54-19.05L112.54-19.05Q110.54-19.05 109.69-19.98 108.84-20.9 108.84-22L108.84-22Q108.84-22.35 108.87-22.53 108.89-22.7 109.09-23.35ZM128.49-5.9L128.49-5.9Q128.49-10.05 132.29-12.33 136.09-14.6 144.24-15.85L144.24-15.85Q144.04-18.35 143.69-19.7 143.34-21.05 142.79-22L142.79-22Q142.14-23.15 141.19-23.85 140.24-24.55 138.79-24.55L138.79-24.55Q137.74-24.55 136.86-24.15 135.99-23.75 135.69-23.05L135.69-23.05Q136.39-22.7 136.66-21.95 136.94-21.2 136.94-20.65L136.94-20.65Q136.94-19.4 135.84-18.43 134.74-17.45 133.19-17.45L133.19-17.45Q131.64-17.45 130.74-18.48 129.84-19.5 129.84-21.05L129.84-21.05Q129.84-23.1 131.29-24.55 132.74-26 134.99-26.75 137.24-27.5 139.54-27.5L139.54-27.5Q141.89-27.5 143.76-26.83 145.64-26.15 146.79-25.15L146.79-25.15Q150.74-21.65 150.74-14.05L150.74-14.05 150.74-7.55Q150.74-5.1 151.06-4.15 151.39-3.2 152.49-3.2L152.49-3.2 154.74-3.2 154.74-0.95Q150.14 0.5 147.79 0.5L147.79 0.5Q146.14 0.5 145.59-0.6 145.04-1.7 145.04-4.95L145.04-4.95 144.84-4.95Q143.29-2.4 140.74-0.95 138.19 0.5 135.24 0.5L135.24 0.5Q132.09 0.5 130.29-1.2 128.49-2.9 128.49-5.9ZM138.29-3.15L138.29-3.15Q139.34-3.15 140.61-3.85 141.89-4.55 142.84-5.8L142.84-5.8Q143.39-6.5 143.89-7.8 144.39-9.1 144.39-10.9L144.39-10.9Q144.39-11.5 144.34-12.25 144.29-13 144.19-13.65L144.19-13.65Q140.74-12.9 138.76-12.05 136.79-11.2 135.96-10.03 135.14-8.85 135.14-7.15L135.14-7.15Q135.14-5 136.14-4.08 137.14-3.15 138.29-3.15ZM155.53-2.85L159.38-3.8 159.38-35.2 155.53-36.15 155.53-39 165.74-39 165.74-3.8 169.59-2.85 169.59 0 155.53 0 155.53-2.85ZM171.83-2.85L175.68-3.8 175.68-35.2 171.83-36.15 171.83-39 182.03-39 182.03-3.8 185.88-2.85 185.88 0 171.83 0 171.83-2.85ZM203.93-23.75L199.08-23.75 199.08-26.3 203.98-27 204.58-33.2 210.28-34 210.28-27 216.68-27 216.68-23.75 210.28-23.75 210.28-7.4Q210.28-5.7 210.33-5.08 210.38-4.45 210.53-4.05L210.53-4.05Q210.68-3.75 211.08-3.6 211.48-3.45 212.38-3.45L212.38-3.45 215.88-3.45 215.88-1.25Q212.98-0.35 210.75 0.08 208.53 0.5 207.23 0.5L207.23 0.5Q204.98 0.5 204.33-1.35L204.33-1.35Q204.13-1.95 204.03-2.9 203.93-3.85 203.93-5.7L203.93-5.7 203.93-23.75ZM222.48-3.75L222.48-23.25 218.63-24.2 218.63-27 228.83-27 228.83-3.75 232.68-2.8 232.68 0 218.63 0 218.63-2.8 222.48-3.75ZM221.93-34.6L221.93-34.6Q221.93-36.2 222.9-37.2 223.88-38.2 225.63-38.2L225.63-38.2Q227.38-38.2 228.38-37.2 229.38-36.2 229.38-34.6L229.38-34.6Q229.38-33.05 228.4-32.05 227.43-31.05 225.63-31.05L225.63-31.05Q223.83-31.05 222.88-32.02 221.93-33 221.93-34.6ZM235.17-2.8L239.02-3.75 239.02-23.25 235.17-24.2 235.17-27 243.87-27 244.97-22 245.17-22Q246.62-24.5 249.05-26 251.47-27.5 254.22-27.5L254.22-27.5Q256.27-27.5 257.87-26.73 259.47-25.95 260.22-24.8L260.22-24.8Q261.02-23.55 261.52-21.5L261.52-21.5Q263.12-24.3 265.67-25.9 268.22-27.5 271.12-27.5L271.12-27.5Q273.12-27.5 274.72-26.73 276.32-25.95 277.17-24.6L277.17-24.6Q277.77-23.65 278.12-22.15 278.47-20.65 278.62-18.28 278.77-15.9 278.77-12.25L278.77-12.25 278.77-3.75 282.62-2.8 282.62 0 269.07 0 269.07-2.8 272.42-3.75 272.42-13.4Q272.42-16.65 272.22-18.23 272.02-19.8 271.62-20.75L271.62-20.75Q271.12-21.95 270.3-22.43 269.47-22.9 268.57-22.9L268.57-22.9Q267.32-22.9 266.3-22.55 265.27-22.2 264.32-21.35L264.32-21.35Q263.22-20.35 262.7-19 262.17-17.65 262.07-15.6L262.07-15.6 262.07-3.75 265.42-2.8 265.42 0 252.37 0 252.37-2.8 255.72-3.75 255.72-13.4Q255.72-16.65 255.52-18.23 255.32-19.8 254.92-20.75L254.92-20.75Q254.42-21.95 253.6-22.43 252.77-22.9 251.87-22.9L251.87-22.9Q250.62-22.9 249.6-22.55 248.57-22.2 247.62-21.35L247.62-21.35Q246.52-20.35 246-19 245.47-17.65 245.37-15.6L245.37-15.6 245.37-3.75 248.72-2.8 248.72 0 235.17 0 235.17-2.8ZM309.27-12.8L309.27-12.8 291.82-12.8Q291.82-9.4 292.82-7.15L292.82-7.15Q293.62-5.45 294.97-4.53 296.32-3.6 298.32-3.6L298.32-3.6Q300.52-3.6 302.7-4.6 304.87-5.6 306.42-7.6L306.42-7.6 309.12-5.5Q307.37-3 304.4-1.25 301.42 0.5 297.07 0.5L297.07 0.5Q293.42 0.5 290.77-0.98 288.12-2.45 286.72-5.3L286.72-5.3Q285.97-6.85 285.62-8.75 285.27-10.65 285.27-12.85L285.27-12.85Q285.27-19.85 288.5-23.68 291.72-27.5 297.62-27.5L297.62-27.5Q303.07-27.5 306.25-24.33 309.42-21.15 309.42-15.55L309.42-15.55Q309.42-15 309.4-14.48 309.37-13.95 309.27-12.8ZM297.52-24.05L297.52-24.05Q292.37-24.05 291.87-16L291.87-16 302.87-16 302.87-17.3Q302.87-20.55 301.45-22.3 300.02-24.05 297.52-24.05ZM335.12-2.55L335.12-2.55Q337.62-2.55 339.39-3.5 341.17-4.45 341.17-6.15L341.17-6.15Q341.17-7.5 340.09-8.4 339.02-9.3 337.39-9.9 335.77-10.5 334.07-11L334.07-11Q332.02-11.65 330.12-12.65 328.22-13.65 327.02-15.33 325.82-17 325.82-19.55L325.82-19.55Q325.82-23.15 328.44-25.33 331.07-27.5 335.87-27.5L335.87-27.5Q340.47-27.5 343.19-25.58 345.92-23.65 345.92-20.6L345.92-20.6Q345.92-18.9 344.99-17.98 344.07-17.05 342.47-17.05L342.47-17.05Q340.87-17.05 339.97-17.82 339.07-18.6 339.07-19.65L339.07-19.65Q339.07-20.5 339.57-21.3 340.07-22.1 340.87-22.45L340.87-22.45Q340.22-23.4 339.02-23.93 337.82-24.45 336.07-24.45L336.07-24.45Q333.77-24.45 332.59-23.48 331.42-22.5 331.42-20.75L331.42-20.75Q331.42-19.45 332.02-18.57 332.62-17.7 333.69-17.15 334.77-16.6 336.22-16.15L336.22-16.15Q338.22-15.55 340.14-14.9 342.07-14.25 343.62-13.3 345.17-12.35 346.09-10.98 347.02-9.6 347.02-7.65L347.02-7.65Q347.02-5.05 345.42-3.23 343.82-1.4 341.09-0.45 338.37 0.5 334.97 0.5L334.97 0.5Q330.22 0.5 327.52-1.28 324.82-3.05 324.82-6L324.82-6Q324.82-8.05 325.97-9.2 327.12-10.35 328.72-10.35L328.72-10.35Q329.92-10.35 330.94-9.68 331.97-9 331.97-7.75L331.97-7.75Q331.97-6.85 331.42-6 330.87-5.15 330.17-4.75L330.17-4.75Q330.67-3.95 331.82-3.25 332.97-2.55 335.12-2.55ZM353.86-23.75L349.01-23.75 349.01-26.3 353.91-27 354.51-33.2 360.21-34 360.21-27 366.61-27 366.61-23.75 360.21-23.75 360.21-7.4Q360.21-5.7 360.26-5.08 360.31-4.45 360.46-4.05L360.46-4.05Q360.61-3.75 361.01-3.6 361.41-3.45 362.31-3.45L362.31-3.45 365.81-3.45 365.81-1.25Q362.91-0.35 360.69 0.08 358.46 0.5 357.16 0.5L357.16 0.5Q354.91 0.5 354.26-1.35L354.26-1.35Q354.06-1.95 353.96-2.9 353.86-3.85 353.86-5.7L353.86-5.7 353.86-23.75ZM394.86-13.5L394.86-13.5Q394.86-10.3 393.94-7.48 393.01-4.65 391.26-2.75L391.26-2.75Q389.61-1 387.29-0.25 384.96 0.5 381.86 0.5L381.86 0.5Q378.76 0.5 376.44-0.25 374.11-1 372.46-2.75L372.46-2.75Q370.71-4.65 369.79-7.48 368.86-10.3 368.86-13.5L368.86-13.5Q368.86-16.7 369.79-19.55 370.71-22.4 372.46-24.25L372.46-24.25Q374.11-26 376.44-26.75 378.76-27.5 381.86-27.5L381.86-27.5Q384.96-27.5 387.29-26.75 389.61-26 391.26-24.25L391.26-24.25Q393.01-22.4 393.94-19.55 394.86-16.7 394.86-13.5ZM377.31-4.85L377.31-4.85Q378.01-3.85 379.14-3.35 380.26-2.85 381.86-2.85L381.86-2.85Q383.46-2.85 384.61-3.35 385.76-3.85 386.41-4.85L386.41-4.85Q388.01-7.3 388.01-13.5L388.01-13.5Q388.01-16.65 387.61-18.8 387.21-20.95 386.41-22.15L386.41-22.15Q385.76-23.15 384.61-23.65 383.46-24.15 381.86-24.15L381.86-24.15Q380.26-24.15 379.14-23.65 378.01-23.15 377.31-22.15L377.31-22.15Q375.71-19.7 375.71-13.5L375.71-13.5Q375.71-7.3 377.31-4.85ZM413.21-23.35L413.21-23.35Q413.21-23.35 413.21-23.35 413.21-23.35 413.21-23.35L413.21-23.35Q412.66-23.35 411.96-22.68 411.26-22 410.68-21.1 410.11-20.2 409.86-19.5L409.86-19.5Q409.26-17.8 408.81-16 408.36-14.2 408.36-11.6L408.36-11.6 408.36-3.75 413.76-2.8 413.76 0 398.16 0 398.16-2.8 402.01-3.75 402.01-24 398.16-24.95 398.16-27 406.86-27 407.96-20.4 408.16-20.4Q409.31-23.8 411.26-25.65 413.21-27.5 415.56-27.5L415.56-27.5Q417.51-27.5 418.81-26.28 420.11-25.05 420.11-23L420.11-23Q420.11-21.5 419.21-20.28 418.31-19.05 416.66-19.05L416.66-19.05Q414.66-19.05 413.81-19.98 412.96-20.9 412.96-22L412.96-22Q412.96-22.35 412.98-22.53 413.01-22.7 413.21-23.35ZM446.11-12.8L446.11-12.8 428.66-12.8Q428.66-9.4 429.66-7.15L429.66-7.15Q430.46-5.45 431.81-4.53 433.16-3.6 435.16-3.6L435.16-3.6Q437.36-3.6 439.53-4.6 441.71-5.6 443.26-7.6L443.26-7.6 445.96-5.5Q444.21-3 441.23-1.25 438.26 0.5 433.91 0.5L433.91 0.5Q430.26 0.5 427.61-0.98 424.96-2.45 423.56-5.3L423.56-5.3Q422.81-6.85 422.46-8.75 422.11-10.65 422.11-12.85L422.11-12.85Q422.11-19.85 425.33-23.68 428.56-27.5 434.46-27.5L434.46-27.5Q439.91-27.5 443.08-24.33 446.26-21.15 446.26-15.55L446.26-15.55Q446.26-15 446.23-14.48 446.21-13.95 446.11-12.8ZM434.36-24.05L434.36-24.05Q429.21-24.05 428.71-16L428.71-16 439.71-16 439.71-17.3Q439.71-20.55 438.28-22.3 436.86-24.05 434.36-24.05Z" opacity="1" transform="matrix(1,0,0,1,0,0)" fill="#398378" class="slogan-text-1" data-fill-palette-color="secondary" id="text-1"></path></svg></g></svg></g></svg></g></svg></g><g><svg viewBox="0 0 151.81387338239998 161.00364508980817" height="161.00364508980817" width="151.81387338239998"><g><svg xmlns="http://www.w3.org/2000/svg" xmlns:xlink="http://www.w3.org/1999/xlink" version="1.1" x="0" y="0" viewBox="7.5 5 84.86297684002501 90" enable-background="new 0 0 100 100" xml:space="preserve" height="161.00364508980817" width="151.81387338239998" class="icon-icon-0" data-fill-palette-color="accent" id="icon-0"><path d="M10 30h8l9.5 38.1c0.3 1.1 1.3 1.9 2.4 1.9h50c1.1 0 2.1-0.8 2.4-1.9l10-40c0.3-1.3-0.5-2.7-1.8-3-1.3-0.3-2.7 0.5-3 1.8l-0.2 0.6L78 65H32l-9.4-37.5-0.2-0.6C22.1 25.8 21.1 25 20 25H10c-1.4 0-2.5 1.1-2.5 2.5S8.6 30 10 30z" fill="#ffd401" data-fill-palette-color="accent"></path><path d="M45 85c0-5.5-4.5-10-10-10s-10 4.5-10 10 4.5 10 10 10S45 90.5 45 85zM30 85c0-2.8 2.2-5 5-5s5 2.2 5 5-2.2 5-5 5S30 87.8 30 85z" fill="#ffd401" data-fill-palette-color="accent"></path><path d="M75 75c-5.5 0-10 4.5-10 10s4.5 10 10 10 10-4.5 10-10S80.5 75 75 75zM75 90c-2.8 0-5-2.2-5-5s2.2-5 5-5 5 2.2 5 5S77.8 90 75 90z" fill="#ffd401" data-fill-palette-color="accent"></path><path d="M53.2 44.3c0.5 0.5 1.1 0.7 1.8 0.7s1.3-0.2 1.8-0.7l15-15c0.5-0.5 0.7-1.1 0.7-1.8s-0.2-1.3-0.7-1.8c-1-1-2.6-1-3.5 0l-1.8 1.8-9 9v-9-20C57.5 6.1 56.4 5 55 5s-2.5 1.1-2.5 2.5v20 9l-9-9-1.8-1.8c-1-1-2.6-1-3.5 0-0.5 0.5-0.7 1.1-0.7 1.8s0.2 1.3 0.7 1.8L53.2 44.3z" fill="#ffd401" data-fill-palette-color="accent"></path></svg></g></svg></g></svg></g></svg></g><g><path d="M0 123.6c0-68.262 55.338-123.6 123.6-123.6 49.548 0 92.286 29.155 111.996 71.245l-2.024 0c-19.578-41.05-61.463-69.415-109.972-69.416-67.252 0-121.771 54.519-121.771 121.771 0 67.252 54.519 121.771 121.771 121.771 48.51 0 90.395-28.366 109.972-69.416h2.024c-19.71 42.09-62.448 71.245-111.996 71.245-68.262 0-123.6-55.338-123.6-123.6z" fill="#398378" stroke="transparent" data-fill-palette-color="tertiary"></path></g></svg></g><defs></defs></svg><rect width="395.52" height="247.2" fill="none" stroke="none" visibility="hidden"></rect></g></svg></g></svg>